<?xml version="1.0" encoding="utf-8"?>
<!-- Generator: Adobe Illustrator 24.0.1, SVG Export Plug-In . SVG Version: 6.00 Build 0)  -->
<svg version="1.1" id="Layer_1" xmlns="http://www.w3.org/2000/svg" xmlns:xlink="http://www.w3.org/1999/xlink" x="0px" y="0px"
	 viewBox="0 0 128 128" style="enable-background:new 0 0 128 128;" xml:space="preserve">
<style type="text/css">
	.st0{stroke:#FFFFFF;stroke-width:3;stroke-miterlimit:10;}
	.st1{fill:none;stroke:#FFFFFF;stroke-width:8;stroke-miterlimit:10;}
</style>
<g>
	<path class="st0" d="M115,101.2H13c-4,0-7.3-3-7.3-6.7V44.3c0-3.7,3.3-6.7,7.3-6.7c7.9,0,15.8,0,23.7,0c5.5,0,6.4-0.8,11.2-5.6
		c5-5,5.7-5.2,12.5-5.2c2.3,0,4.7,0,7,0c8.1,0,8.1,0.8,12.8,5.5c5.5,5.5,5.7,5.3,11.7,5.3c7.7,0,15.3,0,23,0c0.5,0,3,0,5.1,2
		c1.3,1.2,2.1,2.9,2.1,4.7v50.2C122.3,98.2,119,101.2,115,101.2z"/>
	<circle class="st1" cx="64" cy="67.4" r="23.1"/>
</g>
</svg>
