<?xml version="1.0" encoding="UTF-8"?><svg id="Layer_1" xmlns="http://www.w3.org/2000/svg" viewBox="0 0 20.73 20.73"><defs><style>.cls-1{fill:#666;}.cls-2{fill:#c90;}</style></defs><g id="Layer_2"><g id="Layer_1-2"><rect class="cls-1" width="20.73" height="20.73"/></g></g><g><path class="cls-2" d="m9.26,13.01c-.01-1.46.85-2.77,2.2-3.35.27-.11.51-.27.72-.48.86-.86.86-2.25,0-3.11-.86-.86-2.26-.86-3.11,0-.39.39-.62.92-.64,1.47l-1.4-.05c.03-.91.41-1.77,1.05-2.41,1.4-1.4,3.69-1.4,5.09,0s1.4,3.69,0,5.09c-.34.34-.73.6-1.17.78-.82.35-1.34,1.15-1.34,2.04h-1.4Z"/><path class="cls-2" d="m10.05,16.96c-.12,0-.24-.03-.36-.08-.11-.04-.22-.11-.31-.2-.18-.18-.28-.42-.28-.67,0-.13.03-.25.08-.37.04-.11.11-.22.2-.31.22-.22.55-.32.86-.26.06.02.12.03.18.06.05.02.11.05.16.09.05.03.1.07.15.11.08.09.15.2.2.31.05.12.07.24.07.37,0,.25-.09.49-.27.67-.18.18-.42.28-.68.28Z"/></g></svg>