<?xml version="1.0" encoding="UTF-8"?><svg id="Layer_1" xmlns="http://www.w3.org/2000/svg" version="1.1" viewBox="0 0 20.7 20.7"><defs><style>.st0 {fill: #9a9a9a;}.st1 {fill: #666;}.st2 {fill: none;stroke: #9a9a9a;stroke-miterlimit: 10;}</style></defs><g id="Layer_2"><g id="Layer_1-2"><rect class="st1" y="0" width="20.7" height="20.7"/></g></g><g><circle class="st2" cx="10.4" cy="10.4" r="6.3"/><path class="st0" d="M11.3,9.3l-.7,4.7h-1.6l.7-4.7h1.6ZM11.4,7.5c0,.2,0,.4-.2.5-.1.1-.3.2-.5.2s-.4,0-.5-.2c-.1-.1-.2-.3-.2-.5s0-.4.2-.5.3-.2.5-.2.2,0,.4,0c.1,0,.2.2.3.3,0,.1,0,.2,0,.4Z"/></g></svg>